<svg width="17" height="16" viewBox="0 0 17 16" fill="none" xmlns="http://www.w3.org/2000/svg">
<path fill-rule="evenodd" clip-rule="evenodd" d="M14.1846 3.57714C14.3066 3.69911 14.3751 3.86451 14.3751 4.03697C14.3751 4.20943 14.3066 4.37483 14.1846 4.4968L7.03032 11.6511C6.90836 11.773 6.74296 11.8415 6.5705 11.8415C6.39804 11.8415 6.23264 11.773 6.11067 11.6511L2.85871 8.39915C2.79659 8.33915 2.74705 8.26738 2.71296 8.18803C2.67887 8.10868 2.66093 8.02334 2.66018 7.93698C2.65943 7.85062 2.67589 7.76498 2.70859 7.68505C2.74129 7.60512 2.78958 7.5325 2.85065 7.47143C2.91172 7.41037 2.98434 7.36207 3.06427 7.32937C3.1442 7.29667 3.22984 7.28021 3.3162 7.28096C3.40256 7.28171 3.4879 7.29965 3.56725 7.33374C3.6466 7.36783 3.71837 7.41738 3.77837 7.47949L6.5705 10.2716L13.265 3.57714C13.3869 3.45522 13.5523 3.38672 13.7248 3.38672C13.8973 3.38672 14.0627 3.45522 14.1846 3.57714Z" fill="#2B1C50"/>
</svg>
