<svg width="276" height="49" viewBox="0 0 276 49" fill="none" xmlns="http://www.w3.org/2000/svg">
<path d="M67.1364 25.425C65.2294 25.425 63.4699 24.978 61.8578 24.0839C60.2653 23.17 58.9973 21.9084 58.0536 20.2992C57.1296 18.67 56.6676 16.8422 56.6676 14.8158C56.6676 12.7893 57.1296 10.9714 58.0536 9.36215C58.9973 7.75289 60.2653 6.50124 61.8578 5.6072C63.4699 4.6933 65.2294 4.23635 67.1364 4.23635C69.0631 4.23635 70.8226 4.6933 72.415 5.6072C74.0271 6.50124 75.2952 7.75289 76.2192 9.36215C77.1432 10.9714 77.6052 12.7893 77.6052 14.8158C77.6052 16.8422 77.1432 18.67 76.2192 20.2992C75.2952 21.9084 74.0271 23.17 72.415 24.0839C70.8226 24.978 69.0631 25.425 67.1364 25.425ZM67.1364 22.4747C68.4929 22.4747 69.702 22.1667 70.7636 21.5508C71.8252 20.9151 72.651 20.021 73.2408 18.8687C73.8502 17.6965 74.1549 16.3456 74.1549 14.8158C74.1549 13.286 73.8502 11.9449 73.2408 10.7926C72.651 9.6403 71.8252 8.75619 70.7636 8.1403C69.702 7.52441 68.4929 7.21647 67.1364 7.21647C65.7799 7.21647 64.5708 7.52441 63.5092 8.1403C62.4476 8.75619 61.612 9.6403 61.0026 10.7926C60.4128 11.9449 60.1179 13.286 60.1179 14.8158C60.1179 16.3456 60.4128 17.6965 61.0026 18.8687C61.612 20.021 62.4476 20.9151 63.5092 21.5508C64.5708 22.1667 65.7799 22.4747 67.1364 22.4747Z" fill="#3651BF"/>
<path d="M95.2453 10.6734C95.2453 11.7264 94.9995 12.7198 94.508 13.6535C94.0165 14.5873 93.2302 15.3522 92.1489 15.9482C91.0676 16.5244 89.6816 16.8124 87.9908 16.8124H84.2752V25.2164H80.9133V4.50456H87.9908C89.5636 4.50456 90.8906 4.7827 91.9719 5.33899C93.0729 5.87541 93.8888 6.61051 94.4196 7.54428C94.97 8.47805 95.2453 9.52109 95.2453 10.6734ZM87.9908 14.0409C89.2687 14.0409 90.2222 13.7529 90.8513 13.1767C91.4804 12.5807 91.795 11.7462 91.795 10.6734C91.795 8.40851 90.5269 7.27607 87.9908 7.27607H84.2752V14.0409H87.9908Z" fill="#3651BF"/>
<path d="M110.808 20.9846H102.226L100.752 25.2164H97.2425L104.585 4.47476H108.478L115.821 25.2164H112.282L110.808 20.9846ZM109.864 18.2131L106.532 8.58732L103.17 18.2131H109.864Z" fill="#3651BF"/>
<path d="M122.375 22.4747H129.305V25.2164H119.014V4.50456H122.375V22.4747Z" fill="#3651BF"/>
<path d="M143.139 4.50456V25.2164H139.777V4.50456H143.139Z" fill="#3651BF"/>
<path d="M164.391 25.2164H161.03L150.915 9.74957V25.2164H147.553V4.47476H150.915L161.03 19.9118V4.47476H164.391V25.2164Z" fill="#3651BF"/>
<path d="M175.559 25.425C174.183 25.425 172.944 25.1866 171.844 24.7098C170.743 24.2131 169.878 23.5177 169.248 22.6237C168.619 21.7296 168.305 20.6866 168.305 19.4945H171.902C171.981 20.3886 172.325 21.1237 172.935 21.6998C173.564 22.276 174.439 22.5641 175.559 22.5641C176.719 22.5641 177.623 22.2859 178.272 21.7296C178.921 21.1535 179.245 20.4184 179.245 19.5244C179.245 18.829 179.039 18.2628 178.626 17.8257C178.233 17.3886 177.732 17.0509 177.122 16.8124C176.532 16.574 175.707 16.3158 174.645 16.0376C173.308 15.68 172.217 15.3224 171.372 14.9648C170.546 14.5873 169.838 14.0111 169.248 13.2363C168.659 12.4615 168.364 11.4284 168.364 10.137C168.364 8.94493 168.659 7.90189 169.248 7.00786C169.838 6.11382 170.664 5.4284 171.726 4.95158C172.787 4.47476 174.016 4.23635 175.412 4.23635C177.397 4.23635 179.019 4.74297 180.278 5.75621C181.555 6.74958 182.263 8.12044 182.401 9.86877H178.685C178.626 9.11381 178.272 8.46812 177.623 7.93169C176.975 7.39527 176.12 7.12706 175.058 7.12706C174.095 7.12706 173.308 7.37541 172.699 7.87209C172.089 8.36878 171.785 9.08401 171.785 10.0178C171.785 10.6535 171.971 11.18 172.345 11.5972C172.738 11.9946 173.23 12.3125 173.819 12.5509C174.409 12.7893 175.215 13.0476 176.237 13.3257C177.594 13.7032 178.695 14.0807 179.54 14.4582C180.405 14.8356 181.133 15.4217 181.723 16.2164C182.332 16.9913 182.637 18.0343 182.637 19.3455C182.637 20.3985 182.352 21.3919 181.781 22.3257C181.231 23.2594 180.415 24.0144 179.334 24.5906C178.272 25.1468 177.014 25.425 175.559 25.425Z" fill="#3651BF"/>
<path d="M199.844 4.50456V7.27607H194.389V25.2164H191.027V7.27607H185.542V4.50456H199.844Z" fill="#3651BF"/>
<path d="M206.611 4.50456V25.2164H203.249V4.50456H206.611Z" fill="#3651BF"/>
<path d="M224.265 4.50456V7.27607H218.81V25.2164H215.448V7.27607H209.963V4.50456H224.265Z" fill="#3651BF"/>
<path d="M231.002 4.50456V17.7065C231.002 19.276 231.405 20.4581 232.211 21.2528C233.037 22.0475 234.177 22.4449 235.632 22.4449C237.107 22.4449 238.247 22.0475 239.053 21.2528C239.879 20.4581 240.292 19.276 240.292 17.7065V4.50456H243.653V17.6469C243.653 19.3356 243.29 20.7661 242.562 21.9382C241.835 23.1104 240.862 23.9846 239.643 24.5607C238.424 25.1369 237.077 25.425 235.603 25.425C234.128 25.425 232.782 25.1369 231.563 24.5607C230.363 23.9846 229.41 23.1104 228.702 21.9382C227.994 20.7661 227.641 19.3356 227.641 17.6469V4.50456H231.002Z" fill="#3651BF"/>
<path d="M261.271 4.50456V7.27607H255.816V25.2164H252.454V7.27607H246.969V4.50456H261.271Z" fill="#3651BF"/>
<path d="M268.038 7.24627V13.3257H275.115V16.0972H268.038V22.4449H276V25.2164H264.676V4.47476H276V7.24627H268.038Z" fill="#3651BF"/>
<path d="M35.1606 47.8538L31.4744 39.2573L39.1304 31.807L47.3534 35.5322L35.1606 47.8538Z" fill="#3651BF"/>
<path d="M32.8922 49H15.3119L19.2816 39.8304H29.4896L32.8922 49Z" fill="#3651BF"/>
<path d="M16.7297 38.9708L13.0435 47.5673L1.13421 35.5322L9.64082 31.807L16.7297 38.9708Z" fill="#3651BF"/>
<path d="M8.79016 19.1988V29.5146L0 33.2398V15.4737L8.79016 19.1988Z" fill="#3651BF"/>
<path d="M17.0132 9.45614L9.64082 16.9064L1.13421 13.1813L13.327 0.859649L17.0132 9.45614Z" fill="#3651BF"/>
<path d="M29.4896 8.59649H19.2816L15.5954 0H33.1758L29.4896 8.59649Z" fill="#3651BF"/>
<path d="M35.1606 0.859649L31.758 9.74269L38.8468 16.6199L47.0699 12.8947L35.1606 0.859649Z" fill="#3651BF"/>
<path d="M39.6975 29.5146V19.1988L48.4877 15.4737V32.9532L39.6975 29.5146Z" fill="#3651BF"/>
<path d="M11.0586 29.8012V18.6257L18.7145 11.1754H29.7731L37.1455 18.6257V29.8012L29.7731 37.538H18.7145L11.0586 29.8012Z" fill="#3651BF"/>
<path d="M24.5054 18.3392L14.7448 22.2562V22.7784L24.5054 26.4996L32.5207 23.4313V25.5203L32.0035 26.8913C32.6093 27.2031 32.9585 27.2587 33.6195 26.8913L33.0378 25.5203V23.1048L34.2013 22.7784V22.2562L24.5054 18.3392Z" fill="#E6EBFF"/>
<path d="M18.4302 25.2873L18.4968 27.8325L24.5064 30.1537L30.3234 27.5822L30.2568 25.037L24.4364 27.478L18.4302 25.2873Z" fill="#E6EBFF"/>
<path d="M63.6408 37.389C63.6408 37.794 63.5462 38.1761 63.3572 38.5352C63.1682 38.8943 62.8657 39.1885 62.4498 39.4178C62.034 39.6394 61.5009 39.7502 60.8506 39.7502H59.4215V42.9825H58.1285V35.0164H60.8506C61.4555 35.0164 61.9659 35.1234 62.3818 35.3373C62.8052 35.5436 63.119 35.8264 63.3232 36.1855C63.5349 36.5446 63.6408 36.9458 63.6408 37.389ZM60.8506 38.6842C61.3421 38.6842 61.7088 38.5734 61.9508 38.3518C62.1927 38.1226 62.3137 37.8016 62.3137 37.389C62.3137 36.5179 61.826 36.0823 60.8506 36.0823H59.4215V38.6842H60.8506Z" fill="#3651BF"/>
<path d="M73.3692 35.0164V36.0823H71.2709V42.9825H69.9779V36.0823H67.8683V35.0164H73.3692Z" fill="#3651BF"/>
<path d="M79.3744 36.0709V38.4091H82.0965V39.4751H79.3744V41.9165H82.4367V42.9825H78.0814V35.0049H82.4367V36.0709H79.3744Z" fill="#3651BF"/>
<path d="M98.8735 35.0164V36.0823H96.7752V42.9825H95.4822V36.0823H93.3726V35.0164H98.8735Z" fill="#3651BF"/>
<path d="M107.68 42.9825L105.865 39.796H104.879V42.9825H103.586V35.0164H106.308C106.913 35.0164 107.423 35.1234 107.839 35.3373C108.262 35.5513 108.576 35.8378 108.78 36.197C108.992 36.5561 109.098 36.9573 109.098 37.4005C109.098 37.9201 108.947 38.3938 108.644 38.8218C108.349 39.242 107.892 39.5286 107.272 39.6814L109.223 42.9825H107.68ZM104.879 38.753H106.308C106.792 38.753 107.155 38.6307 107.397 38.3862C107.646 38.1417 107.771 37.8131 107.771 37.4005C107.771 36.9878 107.65 36.6669 107.408 36.4377C107.166 36.2008 106.799 36.0823 106.308 36.0823H104.879V38.753Z" fill="#3651BF"/>
<path d="M118.907 41.3549H115.606L115.039 42.9825H113.69L116.514 35.0049H118.011L120.835 42.9825H119.474L118.907 41.3549ZM118.544 40.2889L117.262 36.5867L115.969 40.2889H118.544Z" fill="#3651BF"/>
<path d="M126.759 35.0164V42.9825H125.466V35.0164H126.759Z" fill="#3651BF"/>
<path d="M138.335 42.9825H137.042L133.152 37.0337V42.9825H131.859V35.0049H133.152L137.042 40.9422V35.0049H138.335V42.9825Z" fill="#3651BF"/>
<path d="M144.729 35.0164V42.9825H143.436V35.0164H144.729Z" fill="#3651BF"/>
<path d="M156.306 42.9825H155.013L151.122 37.0337V42.9825H149.829V35.0049H151.122L155.013 40.9422V35.0049H156.306V42.9825Z" fill="#3651BF"/>
<path d="M167.111 37.3088C166.907 36.9114 166.624 36.6134 166.261 36.4147C165.898 36.2084 165.478 36.1053 165.002 36.1053C164.48 36.1053 164.015 36.2237 163.607 36.4606C163.198 36.6975 162.877 37.0337 162.643 37.4692C162.416 37.9048 162.302 38.4091 162.302 38.9822C162.302 39.5553 162.416 40.0635 162.643 40.5067C162.877 40.9422 163.198 41.2784 163.607 41.5153C164.015 41.7522 164.48 41.8706 165.002 41.8706C165.705 41.8706 166.276 41.672 166.714 41.2746C167.153 40.8773 167.421 40.3386 167.52 39.6585H164.559V38.6154H168.903V39.6356C168.82 40.2545 168.601 40.8238 168.246 41.3434C167.898 41.863 167.44 42.2795 166.873 42.5928C166.314 42.8984 165.69 43.0512 165.002 43.0512C164.261 43.0512 163.584 42.8793 162.971 42.5354C162.359 42.1839 161.871 41.6987 161.508 41.0798C161.153 40.4608 160.975 39.7616 160.975 38.9822C160.975 38.2028 161.153 37.5036 161.508 36.8847C161.871 36.2657 162.359 35.7843 162.971 35.4405C163.591 35.089 164.268 34.9132 165.002 34.9132C165.841 34.9132 166.586 35.1234 167.236 35.5436C167.894 35.9563 168.37 36.5446 168.665 37.3088H167.111Z" fill="#3651BF"/>
<path d="M181.223 35.0164V42.9825H179.93V35.0164H181.223Z" fill="#3651BF"/>
<path d="M192.8 42.9825H191.507L187.617 37.0337V42.9825H186.324V35.0049H187.617L191.507 40.9422V35.0049H192.8V42.9825Z" fill="#3651BF"/>
<path d="M200.498 43.0627C199.968 43.0627 199.492 42.971 199.069 42.7876C198.645 42.5966 198.313 42.3291 198.071 41.9853C197.829 41.6414 197.708 41.2402 197.708 40.7818H199.091C199.122 41.1256 199.254 41.4083 199.488 41.6299C199.73 41.8515 200.067 41.9623 200.498 41.9623C200.944 41.9623 201.292 41.8554 201.541 41.6414C201.791 41.4198 201.916 41.1371 201.916 40.7932C201.916 40.5258 201.836 40.308 201.677 40.1399C201.526 39.9718 201.333 39.8419 201.099 39.7502C200.872 39.6585 200.555 39.5591 200.146 39.4522C199.632 39.3146 199.212 39.1771 198.887 39.0395C198.57 38.8943 198.297 38.6727 198.071 38.3747C197.844 38.0767 197.73 37.6794 197.73 37.1827C197.73 36.7242 197.844 36.323 198.071 35.9792C198.297 35.6353 198.615 35.3717 199.023 35.1883C199.432 35.0049 199.904 34.9132 200.441 34.9132C201.205 34.9132 201.829 35.1081 202.313 35.4978C202.804 35.8798 203.076 36.4071 203.129 37.0795H201.7C201.677 36.7892 201.541 36.5408 201.292 36.3345C201.042 36.1282 200.713 36.025 200.305 36.025C199.934 36.025 199.632 36.1205 199.398 36.3116C199.163 36.5026 199.046 36.7777 199.046 37.1368C199.046 37.3814 199.118 37.5839 199.262 37.7443C199.413 37.8972 199.602 38.0194 199.829 38.1111C200.055 38.2028 200.365 38.3021 200.759 38.4091C201.28 38.5543 201.704 38.6995 202.029 38.8447C202.362 38.9899 202.641 39.2153 202.868 39.5209C203.103 39.8189 203.22 40.2201 203.22 40.7244C203.22 41.1294 203.11 41.5115 202.891 41.8706C202.679 42.2298 202.365 42.5202 201.95 42.7418C201.541 42.9557 201.057 43.0627 200.498 43.0627Z" fill="#3651BF"/>
<path d="M213.241 35.0164V36.0823H211.143V42.9825H209.85V36.0823H207.74V35.0164H213.241Z" fill="#3651BF"/>
<path d="M219.246 35.0164V42.9825H217.953V35.0164H219.246Z" fill="#3651BF"/>
<path d="M229.439 35.0164V36.0823H227.341V42.9825H226.048V36.0823H223.938V35.0164H229.439Z" fill="#3651BF"/>
<path d="M235.433 35.0164V40.094C235.433 40.6977 235.588 41.1524 235.898 41.458C236.215 41.7637 236.654 41.9165 237.213 41.9165C237.78 41.9165 238.219 41.7637 238.529 41.458C238.847 41.1524 239.005 40.6977 239.005 40.094V35.0164H240.298V40.0711C240.298 40.7206 240.159 41.2708 239.879 41.7216C239.599 42.1725 239.225 42.5087 238.756 42.7303C238.287 42.9519 237.769 43.0627 237.202 43.0627C236.635 43.0627 236.117 42.9519 235.648 42.7303C235.187 42.5087 234.82 42.1725 234.548 41.7216C234.276 41.2708 234.14 40.7206 234.14 40.0711V35.0164H235.433Z" fill="#3651BF"/>
<path d="M250.477 35.0164V36.0823H248.379V42.9825H247.086V36.0823H244.976V35.0164H250.477Z" fill="#3651BF"/>
<path d="M256.482 36.0709V38.4091H259.204V39.4751H256.482V41.9165H259.545V42.9825H255.189V35.0049H259.545V36.0709H256.482Z" fill="#3651BF"/>
</svg>
